<?xml version="1.0" encoding="UTF-8" standalone="no"?><!DOCTYPE svg PUBLIC "-//W3C//DTD SVG 1.1//EN" "http://www.w3.org/Graphics/SVG/1.1/DTD/svg11.dtd"><svg width="100%" height="100%" viewBox="0 0 1000 235" version="1.1" xmlns="http://www.w3.org/2000/svg" xmlns:xlink="http://www.w3.org/1999/xlink" xml:space="preserve" xmlns:serif="http://www.serif.com/" style="fill-rule:evenodd;clip-rule:evenodd;stroke-linejoin:round;stroke-miterlimit:2;"><rect id="Page-1" serif:id="Page 1" x="0" y="0" width="999.729" height="234.066" style="fill:none;"/><g id="Layer-1" serif:id="Layer 1"><path d="M86.712,143.77c-10.017,0 -19.229,-1.646 -27.621,-4.938c-8.4,-3.292 -15.65,-7.704 -21.754,-13.237l19.175,-22.9c5.725,4.867 11.45,8.446 17.175,10.733c5.725,2.292 11.258,3.438 16.604,3.438c2.192,0 3.958,-0.383 5.296,-1.146c1.333,-0.763 2.004,-1.863 2.004,-3.292c0,-0.762 -0.171,-1.454 -0.504,-2.075c-0.333,-0.621 -1.071,-1.242 -2.217,-1.862c-1.146,-0.621 -2.817,-1.383 -5.008,-2.292c-2.196,-0.904 -5.108,-2.025 -8.733,-3.362c-4.675,-1.717 -8.729,-3.454 -12.163,-5.221c-3.438,-1.767 -6.275,-3.746 -8.517,-5.942c-2.242,-2.192 -3.912,-4.65 -5.008,-7.371c-1.1,-2.717 -1.646,-5.938 -1.646,-9.658c0,-4.867 1.071,-9.421 3.221,-13.671c2.146,-4.242 5.175,-7.942 9.087,-11.092c3.912,-3.146 8.633,-5.65 14.167,-7.513c5.533,-1.862 11.737,-2.792 18.608,-2.792c8.967,0 17.292,1.338 24.975,4.008c7.679,2.671 14.238,6.346 19.675,11.021l-19.175,22.9c-3.817,-3.054 -8.254,-5.679 -13.312,-7.875c-5.058,-2.192 -10.258,-3.292 -15.6,-3.292c-2.196,0 -3.958,0.312 -5.296,0.933c-1.338,0.621 -2,1.646 -2,3.075c0,0.767 0.188,1.408 0.571,1.933c0.379,0.525 1.146,1.075 2.292,1.646c1.142,0.571 2.763,1.267 4.862,2.075c2.1,0.812 4.867,1.838 8.304,3.075c4.292,1.625 8.154,3.292 11.592,5.012c3.433,1.717 6.367,3.696 8.8,5.938c2.433,2.242 4.296,4.821 5.583,7.729c1.287,2.913 1.933,6.275 1.933,10.092c0,5.058 -1.029,9.779 -3.079,14.167c-2.054,4.392 -5.008,8.183 -8.871,11.379c-3.867,3.196 -8.612,5.725 -14.242,7.583c-5.633,1.863 -12.025,2.792 -19.179,2.792" style="fill:#792430;fill-rule:nonzero;"/><path d="M175.16,143.914c-7.062,0 -13.504,-1.025 -19.321,-3.079c-5.821,-2.046 -10.804,-4.983 -14.958,-8.8c-4.15,-3.817 -7.392,-8.421 -9.729,-13.812c-2.342,-5.388 -3.508,-11.471 -3.508,-18.246c0,-6.871 1.312,-13.883 3.938,-21.037c2.621,-7.158 6.604,-13.671 11.95,-19.537c5.342,-5.867 12.042,-10.663 20.108,-14.383c8.062,-3.721 17.483,-5.579 28.267,-5.579c5.438,0 10.421,0.692 14.954,2.071c4.533,1.388 8.562,3.342 12.096,5.871c3.529,2.529 6.487,5.604 8.871,9.229c2.383,3.629 4.104,7.637 5.154,12.025l-29.912,13.021c-1.05,-4.1 -2.958,-7.154 -5.725,-9.158c-2.767,-2.004 -6.058,-3.004 -9.875,-3.004c-3.721,0 -7.108,0.787 -10.162,2.358c-3.054,1.575 -5.654,3.65 -7.8,6.229c-2.146,2.575 -3.817,5.508 -5.008,8.8c-1.196,3.292 -1.787,6.654 -1.787,10.092c0,5.533 1.5,9.779 4.504,12.737c3.008,2.958 6.75,4.433 11.237,4.433c3.913,0 7.442,-0.904 10.592,-2.717c3.15,-1.812 6.104,-4.388 8.875,-7.729l23.183,18.321c-5.058,6.583 -11.308,11.879 -18.75,15.883c-7.442,4.008 -16.508,6.012 -27.192,6.012" style="fill:#792430;fill-rule:nonzero;"/><path d="M238.13,41.583l85.442,0l-7.442,27.479l-52.525,0l-2.717,10.162l48.946,0l-6.442,24.188l-48.946,0l-3.004,10.875l53.238,0l-7.3,27.479l-86.158,0l26.908,-100.183Z" style="fill:#792430;fill-rule:nonzero;"/><path d="M326.863,41.583l31.346,0l22.754,47.804l12.879,-47.804l33.204,0l-26.904,100.183l-29.771,0l-23.758,-49.804l-13.454,49.804l-33.204,0l26.908,-100.183Z" style="fill:#792430;fill-rule:nonzero;"/><path d="M430.622,41.583l33.492,0l-26.908,100.183l-33.487,0l26.904,-100.183Z" style="fill:#792430;fill-rule:nonzero;"/><path d="M492.595,143.914c-7.062,0 -13.504,-1.025 -19.321,-3.079c-5.821,-2.046 -10.808,-4.983 -14.958,-8.8c-4.15,-3.817 -7.392,-8.421 -9.729,-13.812c-2.342,-5.388 -3.508,-11.471 -3.508,-18.246c0,-6.871 1.312,-13.883 3.938,-21.037c2.621,-7.158 6.604,-13.671 11.95,-19.537c5.342,-5.867 12.042,-10.663 20.108,-14.383c8.062,-3.721 17.483,-5.579 28.267,-5.579c5.438,0 10.421,0.692 14.954,2.071c4.533,1.388 8.562,3.342 12.096,5.871c3.529,2.529 6.488,5.604 8.871,9.229c2.383,3.629 4.104,7.637 5.154,12.025l-29.913,13.021c-1.05,-4.1 -2.958,-7.154 -5.725,-9.158c-2.767,-2.004 -6.058,-3.004 -9.875,-3.004c-3.721,0 -7.108,0.787 -10.163,2.358c-3.054,1.575 -5.654,3.65 -7.8,6.229c-2.146,2.575 -3.817,5.508 -5.008,8.8c-1.196,3.292 -1.792,6.654 -1.792,10.092c0,5.533 1.504,9.779 4.508,12.737c3.008,2.958 6.754,4.433 11.238,4.433c3.912,0 7.442,-0.904 10.592,-2.717c3.15,-1.812 6.104,-4.388 8.875,-7.729l23.183,18.321c-5.058,6.583 -11.308,11.879 -18.75,15.883c-7.442,4.008 -16.508,6.012 -27.192,6.012" style="fill:#792430;fill-rule:nonzero;"/><path d="M883.594,70.78l5.583,0c4.004,0 7.3,0.429 9.875,1.287c2.575,0.858 4.671,2.1 6.296,3.721c1.337,1.338 2.362,2.912 3.079,4.725c0.712,1.812 1.071,4.104 1.071,6.871c0,3.054 -0.667,6.129 -2.004,9.229c-1.337,3.1 -3.054,5.704 -5.15,7.8c-2.575,2.575 -5.942,4.579 -10.092,6.013c-4.15,1.429 -8.804,2.146 -13.954,2.146l-5.867,0l11.163,-41.792Zm16.467,67.837c1.712,-0.479 3.392,-0.987 5,-1.575c8.683,-3.146 16.029,-7.725 22.042,-13.737c5.438,-5.438 9.542,-11.496 12.308,-18.175c2.767,-6.679 4.15,-13.787 4.15,-21.325c0,-12.308 -3.625,-22.088 -10.879,-29.342c-3.817,-3.812 -8.871,-6.917 -15.167,-9.3c-6.3,-2.383 -14.312,-3.579 -24.046,-3.579l-35.492,0l-23.454,87.325c24.7,2.458 46.867,5.758 65.538,9.708" style="fill:#792430;fill-rule:nonzero;"/><path d="M800.014,80.226l2.717,24.329l-18.317,0l15.6,-24.329Zm40.087,49.254l-13.325,-88.612l-33.204,-0l-57.067,83.129c37.421,0.229 72.621,2.188 103.596,5.483" style="fill:#792430;fill-rule:nonzero;"/><path d="M686.019,85.95c1.096,-3.15 2.646,-5.963 4.65,-8.446c2.004,-2.479 4.413,-4.508 7.229,-6.079c2.812,-1.575 5.987,-2.362 9.517,-2.362c2.954,0 5.604,0.479 7.946,1.429c2.333,0.954 4.267,2.292 5.796,4.008c1.525,1.717 2.692,3.721 3.504,6.013c0.808,2.287 1.217,4.771 1.217,7.442c0,3.15 -0.55,6.296 -1.646,9.446c-1.096,3.15 -2.646,5.962 -4.65,8.442c-2.004,2.483 -4.417,4.508 -7.229,6.083c-2.817,1.575 -5.988,2.363 -9.517,2.363c-3.054,0 -5.725,-0.475 -8.013,-1.429c-2.292,-0.954 -4.2,-2.292 -5.725,-4.008c-1.529,-1.717 -2.7,-3.721 -3.508,-6.013c-0.812,-2.288 -1.217,-4.771 -1.217,-7.442c0,-3.15 0.546,-6.296 1.646,-9.446m-25.758,40.046c21.746,-1.317 44.85,-2.025 68.796,-2.025c5.167,0 10.283,0.033 15.362,0.1c4.4,-4.971 7.933,-10.592 10.583,-16.867c3.008,-7.108 4.508,-14.529 4.508,-22.258c0,-6.388 -1.217,-12.354 -3.65,-17.888c-2.433,-5.533 -5.846,-10.325 -10.233,-14.383c-4.388,-4.054 -9.638,-7.25 -15.742,-9.587c-6.108,-2.337 -12.833,-3.508 -20.179,-3.508c-8.4,0 -16.2,1.6 -23.4,4.796c-7.208,3.196 -13.433,7.513 -18.679,12.95c-5.25,5.438 -9.371,11.713 -12.379,18.821c-3.004,7.108 -4.508,14.525 -4.508,22.254c0,6.396 1.217,12.358 3.65,17.892c1.554,3.537 3.513,6.771 5.871,9.704" style="fill:#792430;fill-rule:nonzero;"/><path d="M604.37,69.635l11.879,0c4.671,0 7.962,0.954 9.875,2.862c1.433,1.429 2.146,3.196 2.146,5.296c0,3.146 -1.429,5.846 -4.292,8.087c-2.867,2.242 -7.113,3.363 -12.738,3.363l-12.167,0l5.296,-19.608Zm-17.062,63.758l5.467,-20.25l8.304,0l6.817,17.479c10.9,-1.304 22.388,-2.433 34.367,-3.375l-7.837,-18.829c4.962,-1.525 9.208,-3.479 12.737,-5.867c3.529,-2.383 6.417,-5.104 8.658,-8.158c2.242,-3.05 3.887,-6.367 4.938,-9.946c1.05,-3.579 1.575,-7.321 1.575,-11.233c0,-4.008 -0.621,-7.8 -1.858,-11.379c-1.242,-3.579 -3.246,-6.75 -6.012,-9.517c-3.342,-3.342 -8.017,-5.962 -14.029,-7.871c-6.008,-1.908 -13.642,-2.862 -22.896,-2.862l-39.071,0l-26.417,98.35c10.562,-2.413 22.383,-4.604 35.258,-6.542" style="fill:#792430;fill-rule:nonzero;"/><path d="M485.938,159.992c0,0 196.329,-66.729 476.454,-3.121l-17.738,4.346c0,0 -223.854,-58.783 -458.717,-1.225" style="fill:#792430;fill-rule:nonzero;"/><path d="M921.437,135.185l-2.933,0l0,-1.058l7.142,0l0,1.058l-2.946,0l0,8.588l-1.263,0l0,-8.588Z" style="fill:#792430;fill-rule:nonzero;"/><path d="M934.85,139.535c-0.075,-1.346 -0.158,-2.962 -0.146,-4.162l-0.042,0c-0.329,1.129 -0.729,2.329 -1.217,3.662l-1.7,4.679l-0.946,0l-1.558,-4.596c-0.458,-1.358 -0.846,-2.604 -1.117,-3.746l-0.029,0c-0.029,1.2 -0.1,2.817 -0.188,4.263l-0.258,4.137l-1.188,0l0.675,-9.646l1.587,0l1.646,4.663c0.4,1.188 0.729,2.246 0.975,3.25l0.042,0c0.242,-0.975 0.583,-2.033 1.017,-3.25l1.717,-4.663l1.587,0l0.6,9.646l-1.217,0l-0.242,-4.238Z" style="fill:#792430;fill-rule:nonzero;"/><path d="M563.115,163.552l-0.604,-4.842l-3.154,4.842l3.758,0Zm-1.492,-10.333l4.575,0l2.625,16.979l-4.913,0l-0.413,-3.008l-6.5,0l-2.025,3.008l-5.083,0l11.733,-16.979Z" style="fill:#792430;fill-rule:nonzero;"/><path d="M586.409,161.721c2.312,0 3.638,-1.037 3.638,-2.625c0,-0.458 -0.167,-0.867 -0.483,-1.183c-0.454,-0.454 -1.129,-0.65 -1.996,-0.65l-1.737,0l-1.179,4.458l1.758,0Zm-4.192,-8.383l5.517,0c2.746,0 4.554,0.554 5.779,1.783c0.892,0.892 1.329,2.046 1.329,3.446c0,4.192 -3.4,6.792 -8.383,6.792l-2.771,0l-1.3,4.842l-4.7,0l4.529,-16.862Z" style="fill:#792430;fill-rule:nonzero;"/><path d="M594.046,167.406l3.013,-3.108c1.637,1.517 3.346,2.288 5.204,2.288c1.108,0 1.9,-0.479 1.9,-1.25c0,-0.65 -0.458,-0.988 -2.817,-1.904c-2.675,-1.013 -4.383,-2.167 -4.383,-4.65c0,-3.346 3.033,-5.733 7.154,-5.733c2.962,0 5.3,0.963 6.913,2.508l-2.892,3.225c-1.275,-1.108 -2.746,-1.854 -4.454,-1.854c-1.133,0 -1.833,0.529 -1.833,1.204c0,0.675 0.504,0.917 2.821,1.833c2.6,0.987 4.383,2.167 4.383,4.696c0,3.467 -2.987,5.829 -7.179,5.829c-3.3,0 -6.021,-1.133 -7.829,-3.083" style="fill:#792430;fill-rule:nonzero;"/><path d="M609.946,167.406l3.013,-3.108c1.637,1.517 3.346,2.288 5.204,2.288c1.104,0 1.9,-0.479 1.9,-1.25c0,-0.65 -0.458,-0.988 -2.817,-1.904c-2.675,-1.013 -4.387,-2.167 -4.387,-4.65c0,-3.346 3.038,-5.733 7.158,-5.733c2.962,0 5.296,0.963 6.913,2.508l-2.892,3.225c-1.275,-1.108 -2.746,-1.854 -4.454,-1.854c-1.133,0 -1.833,0.529 -1.833,1.204c0,0.675 0.508,0.917 2.817,1.833c2.604,0.987 4.388,2.167 4.388,4.696c0,3.467 -2.987,5.829 -7.179,5.829c-3.3,0 -6.021,-1.133 -7.829,-3.083" style="fill:#792430;fill-rule:nonzero;"/><path d="M637.913,153.338l4.721,0l2.242,6.529l5.733,-6.529l5.25,0l-4.529,16.863l-4.696,0l2.575,-9.683l-6.046,6.6l-0.096,0l-2.479,-6.554l-2.579,9.637l-4.625,0l4.529,-16.863Z" style="fill:#792430;fill-rule:nonzero;"/><path d="M666.46,163.552l-0.604,-4.842l-3.154,4.842l3.758,0Zm-1.496,-10.333l4.579,0l2.625,16.979l-4.913,0l-0.413,-3.008l-6.504,0l-2.021,3.008l-5.083,0l11.729,-16.979Z" style="fill:#792430;fill-rule:nonzero;"/><path d="M678.41,153.338l4.358,0l4.362,9.371l2.529,-9.371l4.65,0l-4.529,16.863l-4.096,0l-4.554,-9.708l-2.6,9.708l-4.65,0l4.529,-16.863Z" style="fill:#792430;fill-rule:nonzero;"/><path d="M694.887,164.612c0,-0.842 0.146,-1.783 0.388,-2.696l2.312,-8.579l4.721,0l-2.388,8.917c-0.142,0.529 -0.237,1.033 -0.237,1.587c0,1.517 0.938,2.458 2.625,2.458c0.892,0 1.688,-0.312 2.262,-0.892c0.629,-0.604 1.058,-1.446 1.421,-2.796l2.508,-9.275l4.721,0l-2.675,9.975c-0.6,2.217 -1.446,3.854 -2.625,5.033c-1.496,1.496 -3.612,2.167 -6.217,2.167c-4.333,0 -6.817,-2.192 -6.817,-5.9" style="fill:#792430;fill-rule:nonzero;"/><path d="M716.495,153.338l13.492,0l-1.108,4.096l-8.792,0l-0.771,2.867l7.95,0l-1.038,3.879l-7.95,0l-1.612,6.021l-4.7,0l4.529,-16.863Z" style="fill:#792430;fill-rule:nonzero;"/><path d="M738.443,163.552l-0.604,-4.842l-3.154,4.842l3.758,0Zm-1.496,-10.333l4.579,0l2.625,16.979l-4.913,0l-0.413,-3.008l-6.504,0l-2.021,3.008l-5.083,0l11.729,-16.979Z" style="fill:#792430;fill-rule:nonzero;"/><path d="M746.053,163.166c0,-4.987 4.046,-10.167 10.525,-10.167c3.446,0 5.829,1.662 6.842,4.267l-4.046,2.167c-0.675,-1.375 -1.733,-2.167 -3.396,-2.167c-2.796,0 -5.033,2.625 -5.033,5.562c0,2.146 1.421,3.471 3.371,3.471c1.471,0 2.529,-0.629 3.612,-1.713l3.158,2.796c-1.642,1.854 -3.854,3.154 -7.058,3.154c-4.675,0 -7.975,-2.867 -7.975,-7.371" style="fill:#792430;fill-rule:nonzero;"/><path d="M769.786,157.433l-5.058,0l1.108,-4.096l14.767,0l-1.083,4.096l-5.062,0l-3.421,12.767l-4.696,0l3.446,-12.767Z" style="fill:#792430;fill-rule:nonzero;"/><path d="M780.144,164.612c0,-0.842 0.146,-1.783 0.383,-2.696l2.312,-8.579l4.725,0l-2.388,8.917c-0.142,0.529 -0.242,1.033 -0.242,1.587c0,1.517 0.942,2.458 2.629,2.458c0.887,0 1.683,-0.312 2.262,-0.892c0.629,-0.604 1.058,-1.446 1.421,-2.796l2.504,-9.275l4.725,0l-2.675,9.975c-0.6,2.217 -1.446,3.854 -2.625,5.033c-1.496,1.496 -3.612,2.167 -6.217,2.167c-4.338,0 -6.817,-2.192 -6.817,-5.9" style="fill:#792430;fill-rule:nonzero;"/><path d="M806.933,161.432c2.096,0 3.467,-0.892 3.467,-2.337c0,-0.458 -0.146,-0.817 -0.433,-1.129c-0.383,-0.387 -1.083,-0.579 -2.071,-0.579l-2.529,0l-1.108,4.046l2.675,0Zm-5.179,-8.092l6.358,0c2.817,0 4.675,0.625 5.808,1.754c0.888,0.892 1.3,2.1 1.3,3.446c0,2.821 -1.617,5.037 -5.058,5.975l2.6,5.683l-5.154,0l-2.242,-5.104l-2.071,0l-1.375,5.104l-4.696,0l4.529,-16.858Z" style="fill:#792430;fill-rule:nonzero;"/><path d="M819.698,153.338l4.675,0l-4.529,16.863l-4.675,0l4.529,-16.863Z" style="fill:#792430;fill-rule:nonzero;"/><path d="M827.889,153.338l4.358,0l4.362,9.371l2.529,-9.371l4.65,0l-4.529,16.863l-4.096,0l-4.554,-9.708l-2.6,9.708l-4.65,0l4.529,-16.863Z" style="fill:#792430;fill-rule:nonzero;"/><path d="M844.151,163.094c0,-5.371 4.383,-10.092 10.817,-10.092c3.371,0 5.829,1.371 6.987,2.867l-3.133,3.033c-0.988,-0.988 -2.363,-1.733 -4.167,-1.733c-3.396,0 -5.733,2.625 -5.733,5.733c0,2.358 1.708,3.588 3.783,3.588c0.938,0 1.658,-0.192 2.237,-0.458l0.675,-2.263l-3.25,0l0.892,-3.421l7.729,0l-2.408,8.504c-1.663,0.963 -3.829,1.683 -6.312,1.683c-4.021,0 -8.117,-2.262 -8.117,-7.442" style="fill:#792430;fill-rule:nonzero;"/><path d="M616.764,187.256c0,-4.987 4.046,-10.167 10.525,-10.167c3.446,0 5.829,1.662 6.842,4.267l-4.046,2.167c-0.675,-1.371 -1.737,-2.167 -3.396,-2.167c-2.796,0 -5.033,2.625 -5.033,5.562c0,2.146 1.421,3.471 3.371,3.471c1.467,0 2.529,-0.625 3.612,-1.713l3.154,2.796c-1.638,1.854 -3.854,3.154 -7.054,3.154c-4.675,0 -7.975,-2.867 -7.975,-7.371" style="fill:#792430;fill-rule:nonzero;"/><path d="M647.742,185.041c0,-2.146 -1.3,-3.733 -3.688,-3.733c-2.938,0 -4.862,2.867 -4.862,5.371c0,2.142 1.296,3.733 3.683,3.733c2.962,0 4.867,-2.867 4.867,-5.371m-13.321,2c0,-5.133 4.192,-9.925 10.046,-9.925c4.792,0 8.046,3.275 8.046,7.562c0,5.133 -4.196,9.925 -10.046,9.925c-4.796,0 -8.046,-3.275 -8.046,-7.562" style="fill:#792430;fill-rule:nonzero;"/><path d="M657.473,177.428l4.721,0l2.242,6.529l5.733,-6.529l5.25,0l-4.529,16.863l-4.696,0l2.579,-9.683l-6.046,6.6l-0.1,0l-2.479,-6.554l-2.579,9.637l-4.625,0l4.529,-16.863Z" style="fill:#792430;fill-rule:nonzero;"/><path d="M683.011,185.812c2.312,0 3.638,-1.037 3.638,-2.625c0,-0.458 -0.167,-0.867 -0.483,-1.183c-0.454,-0.454 -1.129,-0.65 -2,-0.65l-1.733,0l-1.179,4.458l1.758,0Zm-4.192,-8.383l5.517,0c2.746,0 4.55,0.554 5.779,1.783c0.892,0.892 1.329,2.046 1.329,3.446c0,4.192 -3.4,6.792 -8.387,6.792l-2.767,0l-1.3,4.842l-4.7,0l4.529,-16.862Z" style="fill:#792430;fill-rule:nonzero;"/><path d="M701.367,187.643l-0.6,-4.842l-3.158,4.842l3.758,0Zm-1.496,-10.333l4.579,0l2.625,16.979l-4.913,0l-0.413,-3.008l-6.504,0l-2.021,3.008l-5.083,0l11.729,-16.979Z" style="fill:#792430;fill-rule:nonzero;"/><path d="M713.315,177.428l4.358,0l4.362,9.371l2.529,-9.371l4.65,0l-4.529,16.863l-4.096,0l-4.554,-9.708l-2.6,9.708l-4.65,0l4.529,-16.863Z" style="fill:#792430;fill-rule:nonzero;"/><path d="M733.96,187.762l-3.396,-10.333l5.033,0l1.662,6.312l5.083,-6.312l5.587,0l-9.421,10.838l-1.612,6.025l-4.696,0l1.758,-6.529Z" style="fill:#792430;fill-rule:nonzero;"/><path d="M756.679,177.428l4.675,0l-4.529,16.863l-4.675,0l4.529,-16.863Z" style="fill:#792430;fill-rule:nonzero;"/><path d="M764.868,177.428l4.362,0l4.358,9.371l2.529,-9.371l4.65,0l-4.529,16.863l-4.096,0l-4.554,-9.708l-2.6,9.708l-4.65,0l4.529,-16.863Z" style="fill:#792430;fill-rule:nonzero;"/><path d="M781.153,187.256c0,-4.987 4.05,-10.167 10.525,-10.167c3.446,0 5.833,1.662 6.842,4.267l-4.046,2.167c-0.675,-1.371 -1.733,-2.167 -3.396,-2.167c-2.796,0 -5.033,2.625 -5.033,5.562c0,2.146 1.421,3.471 3.371,3.471c1.471,0 2.529,-0.625 3.612,-1.713l3.158,2.796c-1.637,1.854 -3.854,3.154 -7.058,3.154c-4.675,0 -7.975,-2.867 -7.975,-7.371" style="fill:#792430;fill-rule:nonzero;"/></g></svg>