<?xml version="1.0" encoding="UTF-8" standalone="no"?><!DOCTYPE svg PUBLIC "-//W3C//DTD SVG 1.1//EN" "http://www.w3.org/Graphics/SVG/1.1/DTD/svg11.dtd"><svg width="100%" height="100%" viewBox="0 0 1300 371" version="1.1" xmlns="http://www.w3.org/2000/svg" xmlns:xlink="http://www.w3.org/1999/xlink" xml:space="preserve" xmlns:serif="http://www.serif.com/" style="fill-rule:evenodd;clip-rule:evenodd;stroke-linejoin:round;stroke-miterlimit:2;"><g><rect x="0.733" y="292.237" width="82.558" height="78.596" style="fill:#231f20;fill-rule:nonzero;"/><rect x="133.254" y="292.237" width="82.558" height="78.596" style="fill:#231f20;fill-rule:nonzero;"/><rect x="267.179" y="292.237" width="82.558" height="78.596" style="fill:#231f20;fill-rule:nonzero;"/><rect x="404.775" y="292.237" width="82.558" height="78.596" style="fill:#231f20;fill-rule:nonzero;"/><rect x="540.538" y="292.237" width="82.558" height="78.596" style="fill:#231f20;fill-rule:nonzero;"/><rect x="675.871" y="292.237" width="82.558" height="78.596" style="fill:#231f20;fill-rule:nonzero;"/><rect x="809.8" y="292.237" width="82.558" height="78.596" style="fill:#231f20;fill-rule:nonzero;"/><rect x="945.133" y="292.237" width="82.558" height="78.596" style="fill:#231f20;fill-rule:nonzero;"/><rect x="1078.079" y="292.237" width="82.558" height="78.596" style="fill:#231f20;fill-rule:nonzero;"/><rect x="1213.417" y="292.237" width="82.554" height="78.596" style="fill:#231f20;fill-rule:nonzero;"/><rect x="0.733" y="0.558" width="1295.237" height="78.596" style="fill:#231f20;fill-rule:nonzero;"/><path d="M45.242,236.021c-15.754,0 -24.962,-1.25 -41.221,-8.992l-4.021,-1.917l10.838,-22.025l4.204,1.938c11.808,5.438 19.658,6.433 30.867,6.433c4.417,0 11.825,-0.754 11.825,-5.787c0,-2.408 -2.758,-4.513 -16.475,-7.55c-19.513,-4.233 -38.583,-10.142 -38.583,-31.383c0,-18.762 15.817,-31.362 39.358,-31.362c16.142,0 29.533,4.142 37.921,7.617l4.496,1.862l-11.917,22.296l-3.954,-1.579c-8.446,-3.371 -19.275,-5.638 -26.946,-5.638c-5.008,0 -10.354,1.388 -10.354,5.279c0,2.583 2.821,4.692 17.254,7.804c19.629,4.179 37.804,10.846 37.804,31.129c0,19.362 -16.129,31.875 -41.096,31.875Z" style="fill:#ba0e30;fill-rule:nonzero;"/><path d="M182.908,235.892c-29.954,0 -54.325,-22.521 -54.325,-50.196c0,-27.746 24.371,-50.321 54.325,-50.321c16.433,0 31.896,6.829 42.421,18.742l2.963,3.346l-22.2,17.9l-2.904,-3.938c-4.596,-6.242 -12.179,-9.962 -20.279,-9.962c-14.671,0 -25.321,10.192 -25.321,24.233c0,13.817 10.887,24.233 25.321,24.233c8.1,0 15.683,-3.721 20.279,-9.958l2.904,-3.942l22.2,17.9l-2.963,3.346c-10.454,11.833 -25.917,18.617 -42.421,18.617Z" style="fill:#ba0e30;fill-rule:nonzero;"/><path d="M312.162,188.05c8.138,0 17.837,-2.354 17.837,-13.55c0,-8.988 -5.146,-13.546 -15.3,-13.546l-14.762,0l0,27.096l12.225,0Zm20.138,46.825l-18.079,-23.037c-0.475,0.008 -14.283,0.008 -14.283,0.008l0,23.029l-28.342,0l0,-98.483l46.179,0c25.983,0 41.496,13.721 41.496,36.708c0,14.654 -5.737,25.646 -16.679,32.117l24.329,29.658l-34.621,0Z" style="fill:#ba0e30;fill-rule:nonzero;"/><path d="M457.071,192.758l-7.083,-14.692l-7.021,14.692l14.104,0Zm19.575,42.117l-8.55,-18.196l-36.1,0l-8.421,18.196l-30.5,0l49.304,-98.483l15.308,0l49.446,98.483l-30.488,0Z" style="fill:#ba0e30;fill-rule:nonzero;"/><path d="M584.433,187.921c8.137,0 17.837,-2.329 17.837,-13.421c0,-8.988 -5.15,-13.546 -15.3,-13.546l-11.958,0l0,26.967l9.421,0Zm-37.758,46.954l0,-98.483l43.371,0c25.983,0 41.496,13.721 41.496,36.708c0,24.983 -16.067,38.746 -45.238,38.746l-11.292,0l0,23.029l-28.338,0Z" style="fill:#ba0e30;fill-rule:nonzero;"/><path d="M675.925,234.875l0,-98.483l78.721,0l0,24.563l-50.917,0l0,13.992l42.629,0l0,24.05l-42.629,0l0,11.317l53.721,0l0,24.563l-81.525,0Z" style="fill:#ba0e30;fill-rule:nonzero;"/><path d="M836.558,181.621c10.025,0 21.971,-2.896 21.971,-16.688c0,-11.071 -6.342,-16.683 -18.846,-16.683l-8.45,0l0,33.371l5.325,0Zm27.862,68.158l-25.329,-38.854c-0.588,0.008 -7.858,0.008 -7.858,0.008l0,38.846l-34.904,0l0,-131.783l47.142,0c32.008,0 51.117,16.9 51.117,45.217c0,18.046 -7.071,31.583 -20.55,39.554l33.025,47.012l-42.642,0Z" style="fill:#231f20;fill-rule:nonzero;"/><path d="M989.175,192.758l-7.083,-14.692l-7.021,14.692l14.104,0Zm19.575,42.117l-8.55,-18.196l-36.1,0l-8.417,18.196l-30.5,0l49.3,-98.483l15.308,0l49.45,98.483l-30.492,0Z" style="fill:#ba0e30;fill-rule:nonzero;"/><path d="M1140.408,234.875l-27.687,-29.212l-6.138,6.208l0,23.004l-27.804,0l0,-98.483l27.804,0l0,36.183l34.646,-36.183l35.396,0l-45.238,48.662l46.463,49.821l-37.442,0Z" style="fill:#ba0e30;fill-rule:nonzero;"/><path d="M1214.446,234.875l0,-98.483l78.717,0l0,24.563l-50.912,0l0,13.992l42.629,0l0,24.05l-42.629,0l0,11.317l53.721,0l0,24.563l-81.525,0Z" style="fill:#ba0e30;fill-rule:nonzero;"/></g></svg>