<?xml version="1.0" encoding="UTF-8" standalone="no"?><!DOCTYPE svg PUBLIC "-//W3C//DTD SVG 1.1//EN" "http://www.w3.org/Graphics/SVG/1.1/DTD/svg11.dtd"><svg width="100%" height="100%" viewBox="0 0 1446 559" version="1.1" xmlns="http://www.w3.org/2000/svg" xmlns:xlink="http://www.w3.org/1999/xlink" xml:space="preserve" xmlns:serif="http://www.serif.com/" style="fill-rule:evenodd;clip-rule:evenodd;stroke-linejoin:round;stroke-miterlimit:2;"><g><path d="M45.654,361.1c5.571,1.204 10.604,2.621 15.104,4.246c4.5,1.625 8.329,3.617 11.483,5.983c3.154,2.367 5.571,5.2 7.238,8.492c1.671,3.296 2.508,7.267 2.508,11.904c0,5.008 -0.95,9.462 -2.854,13.363c-1.904,3.896 -4.571,7.217 -8,9.954c-3.438,2.737 -7.571,4.825 -12.392,6.258c-4.825,1.442 -10.212,2.163 -16.15,2.163c-4.362,0 -8.304,-0.117 -11.829,-0.35c-3.529,-0.229 -6.917,-0.696 -10.167,-1.392c-3.246,-0.696 -6.521,-1.671 -9.812,-2.921c-3.292,-1.254 -6.892,-2.854 -10.783,-4.804l9.742,-20.046c6.125,2.879 11.875,4.783 17.262,5.708c5.379,0.929 10.9,1.396 16.563,1.396c7.425,0 11.137,-2.321 11.137,-6.962c0,-0.929 -0.233,-1.813 -0.696,-2.646c-0.467,-0.838 -1.325,-1.625 -2.575,-2.367c-1.254,-0.742 -2.925,-1.463 -5.013,-2.158c-2.092,-0.696 -4.8,-1.413 -8.142,-2.158c-5.2,-1.204 -10.025,-2.525 -14.479,-3.967c-4.454,-1.437 -8.329,-3.292 -11.625,-5.567c-3.292,-2.271 -5.892,-5.129 -7.796,-8.563c-1.904,-3.429 -2.85,-7.7 -2.85,-12.804c-0,-4.546 0.854,-8.725 2.575,-12.529c1.717,-3.804 4.221,-7.1 7.517,-9.883c3.292,-2.783 7.263,-4.942 11.9,-6.471c4.642,-1.533 9.883,-2.3 15.733,-2.3c8.35,0 15.704,0.863 22.063,2.575c6.358,1.717 12.088,3.55 17.192,5.5l-10.858,20.742c-2.229,-0.838 -4.596,-1.646 -7.096,-2.438c-2.508,-0.787 -5.017,-1.462 -7.521,-2.017c-2.504,-0.558 -4.987,-1.021 -7.446,-1.392c-2.458,-0.371 -4.804,-0.558 -7.029,-0.558c-3.25,0 -5.687,0.625 -7.308,1.879c-1.629,1.254 -2.442,2.808 -2.442,4.662c0,1.113 0.258,2.088 0.771,2.925c0.504,0.833 1.388,1.625 2.642,2.367c1.254,0.742 2.971,1.438 5.154,2.087c2.179,0.65 4.942,1.346 8.279,2.088Z" style="fill:#ba0e30;fill-rule:nonzero;"/><path d="M189.592,346.346l-29.092,0l0,75.725l-27.142,0l0,-75.725l-29.238,0l0,-22.413l85.471,0l0,22.413Z" style="fill:#ba0e30;fill-rule:nonzero;"/><path d="M243.188,384.067l18.792,0l-9.467,-21.296l-9.325,21.296Zm28.258,21.717l-37.863,0l-7.104,16.288l-28.396,0l48.025,-98.138l12.808,0l48.167,98.138l-28.4,0l-7.237,-16.288Z" style="fill:#ba0e30;fill-rule:nonzero;"/><path d="M375.633,399.658c6.246,0 10.6,-1.021 13.071,-3.063c2.471,-2.042 3.704,-4.871 3.704,-8.492c0,-1.392 -0.304,-2.763 -0.904,-4.104c-0.608,-1.346 -1.587,-2.554 -2.942,-3.621c-1.35,-1.067 -3.075,-1.925 -5.167,-2.575c-2.1,-0.65 -4.642,-0.975 -7.621,-0.975l-15.8,0l0,22.829l15.658,0Zm-15.796,-41.9l10.383,0c2.617,0 4.533,-0.558 5.75,-1.671c1.213,-1.112 1.825,-2.458 1.825,-4.037c0,-1.575 -0.587,-2.921 -1.754,-4.033c-1.171,-1.117 -3.113,-1.671 -5.821,-1.671l-10.383,0l0,11.412Zm34.658,2.646c3.712,0.558 7.171,1.737 10.371,3.55c3.204,1.808 5.988,4.063 8.354,6.75c2.367,2.692 4.225,5.779 5.571,9.258c1.346,3.479 2.021,7.167 2.021,11.067c0,4.083 -0.629,8.004 -1.879,11.762c-1.254,3.758 -3.137,7.054 -5.642,9.883c-2.504,2.833 -5.617,5.104 -9.325,6.821c-3.717,1.712 -7.987,2.575 -12.808,2.575l-57.492,0l0,-98.138l47.054,0c2.875,0 5.587,0.554 8.137,1.671c2.554,1.112 4.758,2.596 6.613,4.454c1.858,1.854 3.346,4.037 4.454,6.542c1.117,2.504 1.675,5.2 1.675,8.075c0,3.154 -0.654,6.079 -1.95,8.767c-1.304,2.696 -3.017,5.012 -5.154,6.963Z" style="fill:#ba0e30;fill-rule:nonzero;"/><path d="M524.521,400.354l0,21.717l-74.196,0l0,-98.138l27.142,0l0,76.421l47.054,0Z" style="fill:#ba0e30;fill-rule:nonzero;"/><path d="M632.262,399.658l0,22.413l-79.067,0l0,-98.138l76.142,0l0,22.413l-49.833,0l0,17.258l41.204,0l0,21.717l-41.204,0l0,14.337l52.758,0Z" style="fill:#ba0e30;fill-rule:nonzero;"/><path d="M704.504,361.1c5.571,1.204 10.604,2.621 15.108,4.246c4.496,1.625 8.329,3.617 11.483,5.983c3.154,2.367 5.567,5.2 7.237,8.492c1.671,3.296 2.504,7.267 2.504,11.904c0,5.008 -0.95,9.462 -2.854,13.363c-1.904,3.896 -4.571,7.217 -8,9.954c-3.433,2.737 -7.571,4.825 -12.392,6.258c-4.825,1.442 -10.213,2.163 -16.15,2.163c-4.358,0 -8.304,-0.117 -11.829,-0.35c-3.525,-0.229 -6.912,-0.696 -10.163,-1.392c-3.246,-0.696 -6.521,-1.671 -9.812,-2.921c-3.296,-1.254 -6.892,-2.854 -10.788,-4.804l9.742,-20.046c6.129,2.879 11.875,4.783 17.262,5.708c5.383,0.929 10.904,1.396 16.567,1.396c7.425,0 11.133,-2.321 11.133,-6.962c0,-0.929 -0.233,-1.813 -0.696,-2.646c-0.462,-0.838 -1.325,-1.625 -2.575,-2.367c-1.25,-0.742 -2.921,-1.463 -5.008,-2.158c-2.092,-0.696 -4.804,-1.413 -8.146,-2.158c-5.196,-1.204 -10.025,-2.525 -14.479,-3.967c-4.454,-1.437 -8.325,-3.292 -11.621,-5.567c-3.296,-2.271 -5.896,-5.129 -7.796,-8.563c-1.904,-3.429 -2.854,-7.7 -2.854,-12.804c0,-4.546 0.858,-8.725 2.575,-12.529c1.717,-3.804 4.225,-7.1 7.517,-9.883c3.292,-2.783 7.263,-4.942 11.9,-6.471c4.642,-1.533 9.883,-2.3 15.733,-2.3c8.354,0 15.704,0.863 22.062,2.575c6.358,1.717 12.088,3.55 17.192,5.5l-10.858,20.742c-2.225,-0.838 -4.592,-1.646 -7.096,-2.438c-2.508,-0.787 -5.013,-1.462 -7.521,-2.017c-2.504,-0.558 -4.988,-1.021 -7.446,-1.392c-2.458,-0.371 -4.8,-0.558 -7.029,-0.558c-3.25,0 -5.683,0.625 -7.308,1.879c-1.625,1.254 -2.437,2.808 -2.437,4.662c0,1.113 0.254,2.088 0.767,2.925c0.508,0.833 1.392,1.625 2.642,2.367c1.258,0.742 2.971,1.438 5.154,2.087c2.179,0.65 4.942,1.346 8.279,2.088Z" style="fill:#231f20;fill-rule:nonzero;"/><path d="M819.908,398.821c4.175,0 7.979,-1.021 11.417,-3.058c3.429,-2.042 6.212,-4.825 8.35,-8.35l20.879,17.15c-4.825,5.883 -10.742,10.504 -17.746,13.858c-7.012,3.362 -14.642,5.042 -22.9,5.042c-7.242,0 -14.013,-1.325 -20.325,-3.967c-6.312,-2.646 -11.833,-6.242 -16.562,-10.792c-4.733,-4.546 -8.471,-9.883 -11.208,-16.004c-2.737,-6.125 -4.104,-12.671 -4.104,-19.629c0,-6.958 1.367,-13.504 4.104,-19.629c2.737,-6.121 6.475,-11.483 11.208,-16.075c4.729,-4.596 10.25,-8.212 16.562,-10.858c6.312,-2.646 13.083,-3.967 20.325,-3.967c8.258,0 15.888,1.696 22.9,5.079c7.004,3.392 12.921,8.004 17.746,13.85l-20.879,17.125c-2.138,-3.529 -4.921,-6.308 -8.35,-8.354c-3.438,-2.042 -7.242,-3.062 -11.417,-3.062c-3.342,0 -6.471,0.579 -9.396,1.737c-2.921,1.154 -5.479,2.846 -7.658,5.067c-2.179,2.221 -3.921,4.929 -5.221,8.121c-1.3,3.192 -1.946,6.825 -1.946,10.896c0,3.983 0.646,7.571 1.946,10.758c1.3,3.196 3.042,5.904 5.221,8.125c2.179,2.221 4.738,3.933 7.658,5.133c2.925,1.204 6.054,1.804 9.396,1.804Z" style="fill:#231f20;fill-rule:nonzero;"/><path d="M916.933,379.058l11.971,0c3.621,0 6.633,-0.463 9.05,-1.396c2.413,-0.925 4.363,-2.129 5.846,-3.617c1.483,-1.483 2.554,-3.179 3.204,-5.083c0.646,-1.9 0.975,-3.871 0.975,-5.912c0,-2.133 -0.279,-4.2 -0.838,-6.196c-0.554,-1.996 -1.487,-3.779 -2.783,-5.358c-1.304,-1.579 -3.017,-2.829 -5.15,-3.758c-2.138,-0.929 -4.779,-1.392 -7.933,-1.392l-14.342,0l0,32.712Zm14.479,21.433l-14.479,0l0,21.579l-27.142,0l0,-98.138l46.075,0c7.517,0 13.875,1.021 19.071,3.063c5.196,2.042 9.375,4.779 12.529,8.213c3.154,3.433 5.429,7.4 6.821,11.9c1.392,4.504 2.088,9.167 2.088,13.992c0,8.167 -1.483,15.129 -4.454,20.879c-2.971,5.754 -7.567,10.208 -13.783,13.363l21.3,26.729l-32.296,0l-15.729,-21.579Z" style="fill:#231f20;fill-rule:nonzero;"/><path d="M1042.496,384.067l18.792,0l-9.462,-21.296l-9.329,21.296Zm28.262,21.717l-37.867,0l-7.1,16.288l-28.396,0l48.025,-98.138l12.804,0l48.171,98.138l-28.4,0l-7.237,-16.288Z" style="fill:#231f20;fill-rule:nonzero;"/><path d="M1167.917,378.917c3.621,0 6.638,-0.437 9.046,-1.321c2.417,-0.879 4.362,-2.063 5.85,-3.55c1.483,-1.483 2.55,-3.179 3.2,-5.083c0.65,-1.9 0.975,-3.871 0.975,-5.912c0,-2.133 -0.275,-4.2 -0.838,-6.196c-0.554,-1.996 -1.483,-3.779 -2.779,-5.358c-1.3,-1.579 -3.021,-2.829 -5.15,-3.758c-2.138,-0.929 -4.783,-1.392 -7.937,-1.392l-10.158,0l0,32.571l7.792,0Zm6.958,-54.983c7.517,0 13.875,1.021 19.075,3.063c5.196,2.042 9.371,4.779 12.525,8.213c3.154,3.433 5.429,7.4 6.821,11.9c1.396,4.504 2.092,9.167 2.092,13.992c0,7.054 -1.092,13.062 -3.275,18.025c-2.179,4.967 -5.242,9.029 -9.183,12.179c-3.946,3.158 -8.658,5.479 -14.129,6.963c-5.479,1.488 -11.508,2.225 -18.096,2.225l-10.579,0l0,21.579l-27.146,0l0,-98.138l41.896,0Z" style="fill:#231f20;fill-rule:nonzero;"/><path d="M1322.854,399.658l0,22.413l-79.067,0l0,-98.138l76.142,0l0,22.413l-49.833,0l0,17.258l41.204,0l0,21.717l-41.204,0l0,14.337l52.758,0Z" style="fill:#231f20;fill-rule:nonzero;"/><path d="M1380.9,379.058l11.971,0c3.621,0 6.633,-0.463 9.05,-1.396c2.408,-0.925 4.362,-2.129 5.846,-3.617c1.483,-1.483 2.55,-3.179 3.2,-5.083c0.65,-1.9 0.975,-3.871 0.975,-5.912c0,-2.133 -0.279,-4.2 -0.833,-6.196c-0.558,-1.996 -1.487,-3.779 -2.787,-5.358c-1.3,-1.579 -3.017,-2.829 -5.15,-3.758c-2.133,-0.929 -4.779,-1.392 -7.933,-1.392l-14.338,0l0,32.712Zm14.479,21.433l-14.479,0l0,21.579l-27.146,0l0,-98.138l46.079,0c7.517,0 13.871,1.021 19.067,3.063c5.196,2.042 9.375,4.779 12.529,8.213c3.154,3.433 5.429,7.4 6.821,11.9c1.392,4.504 2.088,9.167 2.088,13.992c0,8.167 -1.483,15.129 -4.454,20.879c-2.971,5.754 -7.563,10.208 -13.779,13.363l21.296,26.729l-32.292,0l-15.729,-21.579Z" style="fill:#231f20;fill-rule:nonzero;"/><rect x="0" y="479.737" width="1443.4" height="78.596" style="fill:#231f20;fill-rule:nonzero;"/><path d="M802.971,82.296c-0.521,-44.462 -36.683,-80.358 -81.271,-80.358c-44.583,0 -80.746,35.896 -81.271,80.358l-640.429,105.375l0,78.596l1443.4,0l0,-78.596l-640.429,-105.375Z" style="fill:#231f20;fill-rule:nonzero;"/></g></svg>